<svg xmlns="http://www.w3.org/2000/svg" viewBox="0 0 64 64" fill="none">
  <defs>
    <linearGradient id="g" x1="8" y1="4" x2="56" y2="60" gradientUnits="userSpaceOnUse">
      <stop stop-color="#8B5CF6"/>
      <stop offset="1" stop-color="#5B21B6"/>
    </linearGradient>
  </defs>
  <rect x="2" y="2" width="60" height="60" rx="16" fill="url(#g)"/>
  <path d="M32 14c-10.5 0-19 7.2-19 16.1 0 5.1 2.8 9.6 7.2 12.6-.3 2.4-1.3 4.5-3 6.1-.5.5-.1 1.4.6 1.3 3.9-.5 7.1-2 9.5-3.8 1.5.3 3.1.5 4.7.5 10.5 0 19-7.2 19-16.7S42.5 14 32 14Z" fill="#fff"/>
  <circle cx="23.5" cy="30.5" r="3.1" fill="#7C3AED"/>
  <circle cx="32" cy="30.5" r="3.1" fill="#7C3AED"/>
  <circle cx="40.5" cy="30.5" r="3.1" fill="#7C3AED"/>
</svg>
